<svg width="339" height="41" viewBox="0 0 339 41" fill="none" xmlns="http://www.w3.org/2000/svg">
<g filter="url(#filter0_i_1_16)">
<path d="M34.2 40H20.862V39.544C20.862 37.454 21.698 36.333 23.37 36.181L25.023 36.067H25.08L22.8 27.802H12.54L10.146 35.953L14.763 36.295C14.877 36.523 14.858 37.036 14.706 37.834C14.364 39.278 13.528 40 12.198 40H0.741V39.544C0.741 37.454 1.577 36.333 3.249 36.181L5.358 36.067L16.302 0.954996C17.936 0.802998 19.855 0.802998 22.059 0.954996L32.775 35.953L36.765 36.295C36.879 36.523 36.86 37.036 36.708 37.834C36.366 39.278 35.53 40 34.2 40ZM13.623 23.983H21.774L17.841 9.562L13.623 23.983ZM42.1319 0.954996H55.2419C64.6659 0.954996 69.3779 4.337 69.3779 11.101C69.3779 13.951 68.5229 16.364 66.8129 18.34C65.1409 20.278 62.6709 21.608 59.4029 22.33C61.5689 26.586 63.8869 29.911 66.3569 32.305C68.8269 34.661 71.2209 35.839 73.5389 35.839C73.3489 37.283 72.7409 38.48 71.7149 39.43C70.7269 40.38 69.4729 40.855 67.9529 40.855C65.4069 40.855 62.7469 38.955 59.9729 35.155C57.1989 31.317 55.0329 27.232 53.4749 22.9H51.1949V35.953L55.9829 36.295C56.2109 38.765 55.3559 40 53.4179 40H39.9089C39.9089 40 39.9089 39.848 39.9089 39.544C39.9089 37.454 40.7449 36.333 42.4169 36.181L44.0699 36.067V4.888L39.9089 4.546C39.8709 3.596 40.0419 2.76 40.4219 2.038C40.8019 1.316 41.3719 0.954996 42.1319 0.954996ZM51.1949 4.546V19.309C51.4989 19.347 51.9169 19.366 52.4489 19.366C58.7949 19.366 61.9679 16.744 61.9679 11.5C61.9679 9.182 61.3409 7.415 60.0869 6.199C58.8709 4.945 57.0849 4.356 54.7289 4.432L51.3089 4.546H51.1949ZM74.6166 0.954996H108.589V8.992C108.589 9.79 108.342 10.398 107.848 10.816C107.354 11.196 106.917 11.405 106.537 11.443C106.157 11.481 105.625 11.5 104.941 11.5L104.371 5.23H95.1366V35.953L99.8106 36.295C100.039 38.765 99.1836 40 97.2456 40H83.2806C83.2806 40 83.2806 39.848 83.2806 39.544C83.2806 37.454 84.1166 36.333 85.7886 36.181L88.0116 36.067V5.23H78.8346L78.2646 11.5C77.5806 11.5 77.0486 11.481 76.6686 11.443C76.2886 11.405 75.8516 11.196 75.3576 10.816C74.8636 10.398 74.6166 9.79 74.6166 8.992V0.954996ZM148.474 40H135.649V39.544C135.649 37.454 136.485 36.333 138.157 36.181L139.81 36.067V22.615H123.28V35.953L127.384 36.295C127.612 38.765 126.757 40 124.819 40H111.994V39.544C111.994 37.454 112.83 36.333 114.502 36.181L116.155 36.067V5.002L112.051 4.66C111.937 4.432 111.956 3.919 112.108 3.121C112.45 1.677 113.286 0.954996 114.616 0.954996H127.441V1.411C127.441 3.501 126.605 4.622 124.933 4.774L123.28 4.888V18.796H139.81V5.002L135.706 4.66C135.478 2.19 136.333 0.954996 138.271 0.954996H151.096V1.411C151.096 3.501 150.26 4.622 148.588 4.774L146.935 4.888V35.953L151.039 36.295C151.153 36.523 151.134 37.036 150.982 37.834C150.64 39.278 149.804 40 148.474 40ZM180.657 0.954996H190.917C190.917 0.954996 190.917 1.107 190.917 1.411C190.917 3.501 190.081 4.622 188.409 4.774L186.756 4.888V23.47C186.756 29.474 185.54 33.882 183.108 36.694C180.714 39.468 177.161 40.855 172.449 40.855C167.737 40.855 164.165 39.544 161.733 36.922C159.301 34.262 158.085 29.759 158.085 23.413V5.002L153.981 4.66C153.867 4.432 153.886 3.919 154.038 3.121C154.38 1.677 155.216 0.954996 156.546 0.954996H169.371V1.411C169.371 3.501 168.535 4.622 166.863 4.774L165.21 4.888V24.325C165.21 28.505 165.799 31.545 166.977 33.445C168.155 35.345 170.226 36.295 173.19 36.295C179.194 36.295 182.196 32.533 182.196 25.009L182.139 5.002L178.092 4.66C177.864 2.19 178.719 0.954996 180.657 0.954996ZM195.987 0.954996H209.097C218.521 0.954996 223.233 4.337 223.233 11.101C223.233 13.951 222.378 16.364 220.668 18.34C218.996 20.278 216.526 21.608 213.258 22.33C215.424 26.586 217.742 29.911 220.212 32.305C222.682 34.661 225.076 35.839 227.394 35.839C227.204 37.283 226.596 38.48 225.57 39.43C224.582 40.38 223.328 40.855 221.808 40.855C219.262 40.855 216.602 38.955 213.828 35.155C211.054 31.317 208.888 27.232 207.33 22.9H205.05V35.953L209.838 36.295C210.066 38.765 209.211 40 207.273 40H193.764C193.764 40 193.764 39.848 193.764 39.544C193.764 37.454 194.6 36.333 196.272 36.181L197.925 36.067V4.888L193.764 4.546C193.726 3.596 193.897 2.76 194.277 2.038C194.657 1.316 195.227 0.954996 195.987 0.954996ZM205.05 4.546V19.309C205.354 19.347 205.772 19.366 206.304 19.366C212.65 19.366 215.823 16.744 215.823 11.5C215.823 9.182 215.196 7.415 213.942 6.199C212.726 4.945 210.94 4.356 208.584 4.432L205.164 4.546H205.05ZM257.689 40H244.864V39.544C244.864 37.454 245.7 36.333 247.372 36.181L249.025 36.067V5.002H248.968L244.921 4.66C244.807 4.432 244.826 3.919 244.978 3.121C245.32 1.677 246.156 0.954996 247.486 0.954996H260.311V1.411C260.311 3.501 259.475 4.622 257.803 4.774L256.15 4.888V35.953H256.207L260.254 36.295C260.482 38.765 259.627 40 257.689 40ZM296.767 40H283.429V39.544C283.429 37.454 284.265 36.333 285.937 36.181L287.59 36.067H287.647L285.367 27.802H275.107L272.713 35.953L277.33 36.295C277.444 36.523 277.425 37.036 277.273 37.834C276.931 39.278 276.095 40 274.765 40H263.308V39.544C263.308 37.454 264.144 36.333 265.816 36.181L267.925 36.067L278.869 0.954996C280.503 0.802998 282.422 0.802998 284.626 0.954996L295.342 35.953L299.332 36.295C299.446 36.523 299.427 37.036 299.275 37.834C298.933 39.278 298.097 40 296.767 40ZM276.19 23.983H284.341L280.408 9.562L276.19 23.983ZM328.867 0.954996H338.785C338.785 0.954996 338.785 1.107 338.785 1.411C338.785 3.501 337.949 4.622 336.277 4.774L334.624 4.888V39.259C333.484 39.791 332.021 40.057 330.235 40.057L310.912 11.158V35.953L315.016 36.295C315.244 38.765 314.389 40 312.451 40H302.476V39.544C302.476 37.454 303.312 36.333 304.984 36.181L306.637 36.067V5.002L302.533 4.66C302.419 4.432 302.438 3.919 302.59 3.121C302.932 1.677 303.768 0.954996 305.098 0.954996H312.565L330.349 27.46V5.002L326.302 4.66C326.074 2.19 326.929 0.954996 328.867 0.954996Z" fill="white"/>
</g>
<defs>
<filter id="filter0_i_1_16" x="0.740997" y="0.72699" width="338.044" height="44.128" filterUnits="userSpaceOnUse" color-interpolation-filters="sRGB">
<feFlood flood-opacity="0" result="BackgroundImageFix"/>
<feBlend mode="normal" in="SourceGraphic" in2="BackgroundImageFix" result="shape"/>
<feColorMatrix in="SourceAlpha" type="matrix" values="0 0 0 0 0 0 0 0 0 0 0 0 0 0 0 0 0 0 127 0" result="hardAlpha"/>
<feOffset dy="4"/>
<feGaussianBlur stdDeviation="2"/>
<feComposite in2="hardAlpha" operator="arithmetic" k2="-1" k3="1"/>
<feColorMatrix type="matrix" values="0 0 0 0 0 0 0 0 0 0 0 0 0 0 0 0 0 0 0.46 0"/>
<feBlend mode="normal" in2="shape" result="effect1_innerShadow_1_16"/>
</filter>
</defs>
</svg>
