<svg id="visual" viewBox="0 0 900 600" width="900" height="600" xmlns="http://www.w3.org/2000/svg" xmlns:xlink="http://www.w3.org/1999/xlink" version="1.1"><path d="M382 600L175 600L175 540L194 540L194 480L356 480L356 420L159 420L159 360L267 360L267 300L319 300L319 240L251 240L251 180L312 180L312 120L317 120L317 60L252 60L252 0L900 0L900 60L900 60L900 120L900 120L900 180L900 180L900 240L900 240L900 300L900 300L900 360L900 360L900 420L900 420L900 480L900 480L900 540L900 540L900 600L900 600Z" fill="#0c0c0c"></path><path d="M376 600L511 600L511 540L298 540L298 480L402 480L402 420L347 420L347 360L457 360L457 300L366 300L366 240L403 240L403 180L505 180L505 120L328 120L328 60L403 60L403 0L900 0L900 60L900 60L900 120L900 120L900 180L900 180L900 240L900 240L900 300L900 300L900 360L900 360L900 420L900 420L900 480L900 480L900 540L900 540L900 600L900 600Z" fill="#545454"></path><path d="M621 600L512 600L512 540L555 540L555 480L594 480L594 420L585 420L585 360L584 360L584 300L605 300L605 240L632 240L632 180L664 180L664 120L471 120L471 60L597 60L597 0L900 0L900 60L900 60L900 120L900 120L900 180L900 180L900 240L900 240L900 300L900 300L900 360L900 360L900 420L900 420L900 480L900 480L900 540L900 540L900 600L900 600Z" fill="#a5a5a5"></path><path d="M712 600L754 600L754 540L680 540L680 480L792 480L792 420L802 420L802 360L754 360L754 300L800 300L800 240L800 240L800 180L698 180L698 120L659 120L659 60L702 60L702 0L900 0L900 60L900 60L900 120L900 120L900 180L900 180L900 240L900 240L900 300L900 300L900 360L900 360L900 420L900 420L900 480L900 480L900 540L900 540L900 600L900 600Z" fill="#ffffff"></path></svg>