<svg id="visual" viewBox="0 0 900 600" width="900" height="600" xmlns="http://www.w3.org/2000/svg" xmlns:xlink="http://www.w3.org/1999/xlink" version="1.1"><path d="M590 600L466 600L466 540L477 540L477 480L574 480L574 420L456 420L456 360L520 360L520 300L552 300L552 240L511 240L511 180L547 180L547 120L550 120L550 60L512 60L512 0L900 0L900 60L900 60L900 120L900 120L900 180L900 180L900 240L900 240L900 300L900 300L900 360L900 360L900 420L900 420L900 480L900 480L900 540L900 540L900 600L900 600Z" fill="#ffffff"></path><path d="M586 600L667 600L667 540L539 540L539 480L601 480L601 420L568 420L568 360L634 360L634 300L580 300L580 240L602 240L602 180L663 180L663 120L557 120L557 60L602 60L602 0L900 0L900 60L900 60L900 120L900 120L900 180L900 180L900 240L900 240L900 300L900 300L900 360L900 360L900 420L900 420L900 480L900 480L900 540L900 540L900 600L900 600Z" fill="#a5a5a5"></path><path d="M733 600L667 600L667 540L694 540L694 480L717 480L717 420L711 420L711 360L711 360L711 300L723 300L723 240L740 240L740 180L759 180L759 120L643 120L643 60L719 60L719 0L900 0L900 60L900 60L900 120L900 120L900 180L900 180L900 240L900 240L900 300L900 300L900 360L900 360L900 420L900 420L900 480L900 480L900 540L900 540L900 600L900 600Z" fill="#545454"></path><path d="M787 600L813 600L813 540L769 540L769 480L836 480L836 420L841 420L841 360L813 360L813 300L841 300L841 240L840 240L840 180L779 180L779 120L756 120L756 60L782 60L782 0L900 0L900 60L900 60L900 120L900 120L900 180L900 180L900 240L900 240L900 300L900 300L900 360L900 360L900 420L900 420L900 480L900 480L900 540L900 540L900 600L900 600Z" fill="#0c0c0c"></path></svg>