<svg id="visual" viewBox="0 0 400 600" width="400" height="600" xmlns="http://www.w3.org/2000/svg" xmlns:xlink="http://www.w3.org/1999/xlink" version="1.1"><path d="M114 600L173 600L173 514L63 514L63 429L94 429L94 343L125 343L125 257L72 257L72 171L106 171L106 86L116 86L116 0L400 0L400 86L400 86L400 171L400 171L400 257L400 257L400 343L400 343L400 429L400 429L400 514L400 514L400 600L400 600Z" fill="#ffffff"></path><path d="M215 600L191 600L191 514L144 514L144 429L215 429L215 343L160 343L160 257L179 257L179 171L212 171L212 86L149 86L149 0L400 0L400 86L400 86L400 171L400 171L400 257L400 257L400 343L400 343L400 429L400 429L400 514L400 514L400 600L400 600Z" fill="#a5a5a5"></path><path d="M239 600L292 600L292 514L258 514L258 429L289 429L289 343L236 343L236 257L282 257L282 171L263 171L263 86L240 86L240 0L400 0L400 86L400 86L400 171L400 171L400 257L400 257L400 343L400 343L400 429L400 429L400 514L400 514L400 600L400 600Z" fill="#545454"></path><path d="M326 600L285 600L285 514L338 514L338 429L292 429L292 343L318 343L318 257L306 257L306 171L324 171L324 86L353 86L353 0L400 0L400 86L400 86L400 171L400 171L400 257L400 257L400 343L400 343L400 429L400 429L400 514L400 514L400 600L400 600Z" fill="#0c0c0c"></path></svg>