<svg width="541" height="31" viewBox="0 0 541 31" fill="none" xmlns="http://www.w3.org/2000/svg">
<g filter="url(#filter0_i_1_17)">
<path d="M1.976 2.08H9.464C16.9307 2.08 20.664 5.696 20.664 12.928C20.664 16.512 19.6933 19.2533 17.752 21.152C15.8107 23.0507 13.1013 24 9.624 24H0.312C0.248 23.488 0.301333 23.0187 0.472 22.592C0.664 22.1653 0.984 21.9307 1.432 21.888L2.584 21.76V4.352H2.552L0.312 4.16C0.290667 3.41333 0.397333 2.88 0.632 2.56C0.866667 2.24 1.31467 2.08 1.976 2.08ZM8.664 21.792C11.416 21.9627 13.4107 21.3547 14.648 19.968C15.8853 18.5813 16.504 16.288 16.504 13.088C16.504 9.86667 15.864 7.57333 14.584 6.208C13.3253 4.82133 11.256 4.18133 8.376 4.288L6.584 4.352V21.664L8.664 21.792ZM26.9653 16.16V16.512C26.9653 18.24 27.2746 19.5307 27.8933 20.384C28.5333 21.216 29.6213 21.632 31.1573 21.632C32.7146 21.632 34.2399 21.0453 35.7333 19.872C36.1599 20.192 36.3733 20.6933 36.3733 21.376C36.3733 22.0373 35.7759 22.72 34.5813 23.424C33.4079 24.128 31.9359 24.48 30.1653 24.48C27.8613 24.48 26.0693 23.808 24.7893 22.464C23.5306 21.0987 22.9013 19.04 22.9013 16.288C22.9013 13.5147 23.5839 11.3387 24.9493 9.76C26.3359 8.16 28.2346 7.36 30.6453 7.36C32.6933 7.36 34.2186 8 35.2213 9.28C36.2453 10.56 36.7359 12.2453 36.6933 14.336V16.16H26.9653ZM30.2933 9.92C28.5439 9.92 27.4879 11.264 27.1253 13.952H32.9493C32.9066 12.5013 32.6613 11.4667 32.2133 10.848C31.7653 10.2293 31.1253 9.92 30.2933 9.92ZM49.7835 7.84H54.3915C54.3915 9.20533 54.0075 9.92 53.2395 9.984L52.7595 10.048L46.9995 24H44.8555L39.1915 10.112H39.1595L37.6875 9.92C37.6662 9.36533 37.7622 8.88533 37.9755 8.48C38.1888 8.05333 38.5515 7.84 39.0635 7.84H45.3995C45.3568 8.62933 45.2608 9.12 45.1115 9.312C44.7915 9.71733 44.4182 9.94133 43.9915 9.984L43.4795 10.048L46.5835 18.112L49.7195 10.08L48.3435 9.92C48.2795 9.792 48.2902 9.504 48.3755 9.056C48.5675 8.24533 49.0368 7.84 49.7835 7.84ZM59.5903 16.16V16.512C59.5903 18.24 59.8996 19.5307 60.5183 20.384C61.1583 21.216 62.2463 21.632 63.7823 21.632C65.3396 21.632 66.8649 21.0453 68.3583 19.872C68.7849 20.192 68.9983 20.6933 68.9983 21.376C68.9983 22.0373 68.4009 22.72 67.2063 23.424C66.0329 24.128 64.5609 24.48 62.7903 24.48C60.4863 24.48 58.6943 23.808 57.4143 22.464C56.1556 21.0987 55.5263 19.04 55.5263 16.288C55.5263 13.5147 56.2089 11.3387 57.5743 9.76C58.9609 8.16 60.8596 7.36 63.2703 7.36C65.3183 7.36 66.8436 8 67.8463 9.28C68.8703 10.56 69.3609 12.2453 69.3183 14.336V16.16H59.5903ZM62.9183 9.92C61.1689 9.92 60.1129 11.264 59.7503 13.952H65.5743C65.5316 12.5013 65.2863 11.4667 64.8383 10.848C64.3903 10.2293 63.7503 9.92 62.9183 9.92ZM78.4725 24H71.3365V23.744C71.3365 22.5707 71.8058 21.9413 72.7445 21.856L73.7365 21.792V3.936L72.4885 3.808C71.6138 3.72267 71.2192 3.06133 71.3045 1.824L77.6405 1.12V21.728L79.9125 21.92C80.0405 23.3067 79.5605 24 78.4725 24ZM91.7633 11.52C91.1659 10.3893 90.3126 9.824 89.2033 9.824C88.0939 9.824 87.2299 10.3787 86.6113 11.488C86.0139 12.5973 85.7153 14.112 85.7153 16.032C85.7153 17.9307 86.0139 19.4133 86.6113 20.48C87.2299 21.5253 88.0939 22.048 89.2033 22.048C90.3126 22.048 91.1659 21.536 91.7633 20.512C92.3819 19.4667 92.6913 17.9947 92.6913 16.096C92.6913 14.176 92.3819 12.6507 91.7633 11.52ZM81.6513 16.192C81.6513 13.4613 82.3233 11.3067 83.6673 9.728C85.0326 8.14933 86.9206 7.36 89.3313 7.36C91.7419 7.36 93.5766 8.11733 94.8353 9.632C96.1153 11.1467 96.7553 13.248 96.7553 15.936C96.7553 18.6027 96.0726 20.6933 94.7073 22.208C93.3419 23.7227 91.4326 24.48 88.9792 24.48C86.5473 24.48 84.7126 23.776 83.4753 22.368C82.2593 20.96 81.6513 18.9013 81.6513 16.192ZM104.339 9.216C105.726 7.97867 107.294 7.36 109.043 7.36C110.814 7.36 112.328 7.98933 113.587 9.248C114.846 10.4853 115.496 12.4693 115.539 15.2C115.582 17.9307 114.92 20.16 113.555 21.888C112.211 23.616 110.227 24.48 107.603 24.48C106.43 24.48 105.416 24.2987 104.563 23.936V28.704H104.595L106.835 28.896C106.963 30.2827 106.483 30.976 105.395 30.976H98.259V30.72C98.259 29.5467 98.7283 28.9173 99.667 28.832L100.659 28.768V10.368L99.283 10.208C98.6217 10.1227 98.291 9.48267 98.291 8.288L104.051 7.552L104.339 9.216ZM107.859 21.888C110.27 21.888 111.475 19.8933 111.475 15.904C111.475 14.0693 111.155 12.6507 110.515 11.648C109.896 10.6453 109.011 10.144 107.859 10.144C106.707 10.144 105.608 10.624 104.563 11.584V20.608C105.587 21.4613 106.686 21.888 107.859 21.888ZM121.84 16.16V16.512C121.84 18.24 122.15 19.5307 122.768 20.384C123.408 21.216 124.496 21.632 126.032 21.632C127.59 21.632 129.115 21.0453 130.608 19.872C131.035 20.192 131.248 20.6933 131.248 21.376C131.248 22.0373 130.651 22.72 129.456 23.424C128.283 24.128 126.811 24.48 125.04 24.48C122.736 24.48 120.944 23.808 119.664 22.464C118.406 21.0987 117.776 19.04 117.776 16.288C117.776 13.5147 118.459 11.3387 119.824 9.76C121.211 8.16 123.11 7.36 125.52 7.36C127.568 7.36 129.094 8 130.096 9.28C131.12 10.56 131.611 12.2453 131.568 14.336V16.16H121.84ZM125.168 9.92C123.419 9.92 122.363 11.264 122 13.952H127.824C127.782 12.5013 127.536 11.4667 127.088 10.848C126.64 10.2293 126 9.92 125.168 9.92ZM139.699 10.176C140.211 9.49333 140.936 8.85333 141.875 8.256C142.835 7.65867 143.656 7.36 144.339 7.36C145.043 7.36 145.629 7.584 146.099 8.032C146.568 8.48 146.803 9.22667 146.803 10.272C146.803 11.296 146.451 12.1173 145.747 12.736C145.384 13.0133 144.776 13.0987 143.923 12.992C143.923 12.288 143.859 11.7547 143.731 11.392C143.603 11.008 143.464 10.784 143.315 10.72C143.165 10.6347 142.963 10.592 142.707 10.592C141.64 10.592 140.68 11.2853 139.827 12.672V21.728L142.419 21.92C142.547 23.3067 142.067 24 140.979 24H133.587C133.587 24 133.587 23.9147 133.587 23.744C133.587 22.5707 134.056 21.9413 134.995 21.856L135.923 21.792V10.336L134.515 10.176C133.853 10.112 133.523 9.472 133.523 8.256L139.315 7.52L139.603 10.176H139.699ZM158.638 30.176V0.511999H161.71V30.176H158.638ZM189.565 2.08H195.133C195.133 2.08 195.133 2.16533 195.133 2.336C195.133 3.50933 194.663 4.13867 193.725 4.224L192.797 4.288V23.584C192.157 23.8827 191.335 24.032 190.333 24.032L179.485 7.808V21.728L181.789 21.92C181.917 23.3067 181.437 24 180.349 24H174.749V23.744C174.749 22.5707 175.218 21.9413 176.157 21.856L177.085 21.792V4.352L174.781 4.16C174.717 4.032 174.727 3.744 174.813 3.296C175.005 2.48533 175.474 2.08 176.221 2.08H180.413L190.397 16.96V4.352L188.125 4.16C187.997 2.77333 188.477 2.08 189.565 2.08ZM200.872 16.16V16.512C200.872 18.24 201.181 19.5307 201.8 20.384C202.44 21.216 203.528 21.632 205.064 21.632C206.621 21.632 208.146 21.0453 209.64 19.872C210.066 20.192 210.28 20.6933 210.28 21.376C210.28 22.0373 209.682 22.72 208.488 23.424C207.314 24.128 205.842 24.48 204.072 24.48C201.768 24.48 199.976 23.808 198.696 22.464C197.437 21.0987 196.808 19.04 196.808 16.288C196.808 13.5147 197.49 11.3387 198.856 9.76C200.242 8.16 202.141 7.36 204.552 7.36C206.6 7.36 208.125 8 209.128 9.28C210.152 10.56 210.642 12.2453 210.6 14.336V16.16H200.872ZM204.2 9.92C202.45 9.92 201.394 11.264 201.032 13.952H206.856C206.813 12.5013 206.568 11.4667 206.12 10.848C205.672 10.2293 205.032 9.92 204.2 9.92ZM226.762 24H220.042C220.084 23.1893 220.18 22.6987 220.33 22.528C220.65 22.1653 221.023 21.9413 221.45 21.856L221.834 21.792H221.898L219.146 17.984L216.778 21.728L218.442 21.92C218.57 23.3067 218.09 24 217.002 24H211.818V23.744C211.818 22.5707 212.287 21.9413 213.226 21.856L213.962 21.792L217.866 16.192L213.482 10.112L211.786 9.92C211.743 9.664 211.775 9.344 211.882 8.96C212.095 8.21333 212.543 7.84 213.226 7.84H219.818C219.754 8.58667 219.658 9.056 219.53 9.248C219.252 9.632 218.794 9.89867 218.154 10.048H218.122L220.842 13.824L223.21 10.112H223.146L221.802 9.92C221.738 9.792 221.748 9.504 221.834 9.056C222.026 8.24533 222.495 7.84 223.242 7.84H228.042V8.096C228.042 9.26933 227.572 9.89867 226.634 9.984L225.962 10.048L222.186 15.68L226.538 21.728L228.202 21.92C228.266 22.048 228.255 22.336 228.17 22.784C227.978 23.5947 227.508 24 226.762 24ZM235.062 10.08V18.944C235.062 20.672 235.617 21.536 236.726 21.536C237.537 21.536 238.209 21.4293 238.742 21.216C239.297 21.0027 239.884 20.64 240.502 20.128C240.609 20.128 240.748 20.2667 240.918 20.544C241.089 20.8213 241.174 21.12 241.174 21.44C241.174 22.272 240.588 22.9867 239.414 23.584C238.241 24.1813 237.1 24.48 235.99 24.48C234.881 24.48 234.006 24.32 233.366 24C232.726 23.7013 232.246 23.2533 231.926 22.656C231.414 21.6747 231.158 20.3733 231.158 18.752V10.08H228.502C228.502 8.58667 229.025 7.84 230.07 7.84H231.158V3.744L235.062 3.328V7.84H240.822C240.865 8.16 240.833 8.52267 240.726 8.928C240.534 9.696 240.044 10.08 239.254 10.08H235.062ZM246.811 2.08H254.075C254.075 2.08 254.075 2.16533 254.075 2.336C254.075 3.50933 253.606 4.13867 252.667 4.224L251.739 4.288V19.552C251.739 21.4507 251.185 22.9973 250.075 24.192C248.987 25.408 247.515 26.016 245.659 26.016C244.635 26.016 243.814 25.7493 243.195 25.216C242.577 24.704 242.267 24.0853 242.267 23.36C242.267 21.6533 243.174 20.8 244.987 20.8C244.987 22.4853 245.521 23.328 246.587 23.328C246.971 23.328 247.259 23.0827 247.451 22.592C247.643 22.08 247.739 21.1413 247.739 19.776V4.352H247.707L245.371 4.16C245.243 2.77333 245.723 2.08 246.811 2.08ZM268.864 3.2C269.483 3.81867 269.792 4.58667 269.792 5.504C269.792 6.42133 269.515 7.11467 268.96 7.584C268.406 8.05333 267.691 8.224 266.816 8.096C266.816 5.38667 265.632 4.032 263.264 4.032C262.219 4.032 261.366 4.27733 260.704 4.768C260.064 5.23733 259.744 5.888 259.744 6.72C259.744 7.36 259.894 7.84 260.192 8.16C260.491 8.45867 260.715 8.68267 260.864 8.832C261.014 8.96 261.291 9.14133 261.696 9.376C262.123 9.58933 262.422 9.73867 262.592 9.824C262.784 9.90933 263.158 10.08 263.712 10.336C264.288 10.5707 264.672 10.7307 264.864 10.816C267.04 11.776 268.566 12.6933 269.44 13.568C270.336 14.4427 270.784 15.6587 270.784 17.216C270.784 19.3707 270.027 21.12 268.512 22.464C266.998 23.808 264.95 24.48 262.368 24.48C259.766 24.48 257.814 23.8933 256.512 22.72C255.808 22.0587 255.456 21.2907 255.456 20.416C255.456 19.52 255.734 18.816 256.288 18.304C256.864 17.792 257.718 17.536 258.848 17.536C258.848 19.0933 259.168 20.2347 259.808 20.96C260.47 21.6853 261.504 22.048 262.912 22.048C264.32 22.048 265.43 21.728 266.24 21.088C267.051 20.4267 267.456 19.6053 267.456 18.624C267.456 17.6427 267.072 16.8533 266.304 16.256C265.536 15.6587 264.512 15.0827 263.232 14.528C261.952 13.9733 261.11 13.6107 260.704 13.44C260.299 13.248 259.766 12.9493 259.104 12.544C258.443 12.1173 257.963 11.712 257.664 11.328C256.832 10.304 256.416 9.13067 256.416 7.808C256.416 5.78133 257.163 4.24533 258.656 3.2C260.15 2.13333 261.952 1.6 264.064 1.6C266.176 1.6 267.776 2.13333 268.864 3.2ZM283.481 30.176V0.511999H286.553V30.176H283.481ZM314.409 2.08H319.977C319.977 2.08 319.977 2.16533 319.977 2.336C319.977 3.50933 319.507 4.13867 318.569 4.224L317.641 4.288V23.584C317.001 23.8827 316.179 24.032 315.177 24.032L304.329 7.808V21.728L306.633 21.92C306.761 23.3067 306.281 24 305.193 24H299.593V23.744C299.593 22.5707 300.062 21.9413 301.001 21.856L301.929 21.792V4.352L299.625 4.16C299.561 4.032 299.571 3.744 299.657 3.296C299.849 2.48533 300.318 2.08 301.065 2.08H305.257L315.241 16.96V4.352L312.969 4.16C312.841 2.77333 313.321 2.08 314.409 2.08ZM331.763 11.52C331.166 10.3893 330.313 9.824 329.203 9.824C328.094 9.824 327.23 10.3787 326.611 11.488C326.014 12.5973 325.715 14.112 325.715 16.032C325.715 17.9307 326.014 19.4133 326.611 20.48C327.23 21.5253 328.094 22.048 329.203 22.048C330.313 22.048 331.166 21.536 331.763 20.512C332.382 19.4667 332.691 17.9947 332.691 16.096C332.691 14.176 332.382 12.6507 331.763 11.52ZM321.651 16.192C321.651 13.4613 322.323 11.3067 323.667 9.728C325.033 8.14933 326.921 7.36 329.331 7.36C331.742 7.36 333.577 8.11733 334.835 9.632C336.115 11.1467 336.755 13.248 336.755 15.936C336.755 18.6027 336.073 20.6933 334.707 22.208C333.342 23.7227 331.433 24.48 328.979 24.48C326.547 24.48 324.713 23.776 323.475 22.368C322.259 20.96 321.651 18.9013 321.651 16.192ZM356.019 22.464C356.019 23.8293 355.112 24.512 353.299 24.512C351.507 24.512 350.44 23.9253 350.099 22.752C348.734 23.904 347.176 24.48 345.427 24.48C343.699 24.48 342.206 23.8613 340.947 22.624C339.688 21.3653 339.038 19.3707 338.995 16.64C338.952 13.9093 339.603 11.68 340.947 9.952C342.312 8.224 344.307 7.36 346.931 7.36C348.104 7.36 349.118 7.54133 349.971 7.904V3.936L348.723 3.808C347.848 3.72267 347.454 3.06133 347.539 1.824L353.875 1.12V22.272L356.019 22.464ZM346.675 9.952C344.264 9.952 343.059 11.9467 343.059 15.936C343.059 17.7707 343.368 19.1893 343.987 20.192C344.627 21.1947 345.512 21.696 346.643 21.696C347.795 21.696 348.904 21.216 349.971 20.256V11.232C348.947 10.3787 347.848 9.952 346.675 9.952ZM361.528 16.16V16.512C361.528 18.24 361.837 19.5307 362.456 20.384C363.096 21.216 364.184 21.632 365.72 21.632C367.277 21.632 368.802 21.0453 370.296 19.872C370.722 20.192 370.936 20.6933 370.936 21.376C370.936 22.0373 370.338 22.72 369.144 23.424C367.97 24.128 366.498 24.48 364.728 24.48C362.424 24.48 360.632 23.808 359.352 22.464C358.093 21.0987 357.464 19.04 357.464 16.288C357.464 13.5147 358.146 11.3387 359.512 9.76C360.898 8.16 362.797 7.36 365.208 7.36C367.256 7.36 368.781 8 369.784 9.28C370.808 10.56 371.298 12.2453 371.256 14.336V16.16H361.528ZM364.856 9.92C363.106 9.92 362.05 11.264 361.688 13.952H367.512C367.469 12.5013 367.224 11.4667 366.776 10.848C366.328 10.2293 365.688 9.92 364.856 9.92ZM384.013 30.176V0.511999H387.085V30.176H384.013ZM416.22 18.784V24H400.124C400.124 22.6347 400.593 21.92 401.532 21.856L402.46 21.792V4.352L400.156 4.16C400.092 4.032 400.102 3.744 400.188 3.296C400.38 2.48533 400.849 2.08 401.596 2.08H415.612V6.912C415.612 7.872 414.929 8.288 413.564 8.16L413.276 4.384L406.46 4.288V12.224L412.188 11.552C412.422 12.576 412.433 13.632 412.22 14.72L406.46 14.4V21.728L413.916 21.472L414.172 17.536C415.537 17.408 416.22 17.824 416.22 18.784ZM432.356 24H425.635C425.678 23.1893 425.774 22.6987 425.924 22.528C426.244 22.1653 426.617 21.9413 427.044 21.856L427.428 21.792H427.492L424.74 17.984L422.372 21.728L424.036 21.92C424.164 23.3067 423.684 24 422.596 24H417.412V23.744C417.412 22.5707 417.881 21.9413 418.82 21.856L419.556 21.792L423.46 16.192L419.076 10.112L417.38 9.92C417.337 9.664 417.369 9.344 417.476 8.96C417.689 8.21333 418.137 7.84 418.82 7.84H425.411C425.348 8.58667 425.252 9.056 425.124 9.248C424.846 9.632 424.388 9.89867 423.748 10.048H423.716L426.436 13.824L428.804 10.112H428.74L427.396 9.92C427.332 9.792 427.342 9.504 427.428 9.056C427.62 8.24533 428.089 7.84 428.836 7.84H433.635V8.096C433.635 9.26933 433.166 9.89867 432.228 9.984L431.556 10.048L427.78 15.68L432.132 21.728L433.796 21.92C433.86 22.048 433.849 22.336 433.764 22.784C433.572 23.5947 433.102 24 432.356 24ZM440.464 9.216C441.851 7.97867 443.419 7.36 445.168 7.36C446.939 7.36 448.453 7.98933 449.712 9.248C450.971 10.4853 451.621 12.4693 451.664 15.2C451.707 17.9307 451.045 20.16 449.68 21.888C448.336 23.616 446.352 24.48 443.728 24.48C442.555 24.48 441.541 24.2987 440.688 23.936V28.704H440.72L442.96 28.896C443.088 30.2827 442.608 30.976 441.52 30.976H434.384V30.72C434.384 29.5467 434.853 28.9173 435.792 28.832L436.784 28.768V10.368L435.408 10.208C434.747 10.1227 434.416 9.48267 434.416 8.288L440.176 7.552L440.464 9.216ZM443.984 21.888C446.395 21.888 447.6 19.8933 447.6 15.904C447.6 14.0693 447.28 12.6507 446.64 11.648C446.021 10.6453 445.136 10.144 443.984 10.144C442.832 10.144 441.733 10.624 440.688 11.584V20.608C441.712 21.4613 442.811 21.888 443.984 21.888ZM459.917 10.176C460.429 9.49333 461.155 8.85333 462.093 8.256C463.053 7.65867 463.875 7.36 464.557 7.36C465.261 7.36 465.848 7.584 466.317 8.032C466.787 8.48 467.021 9.22667 467.021 10.272C467.021 11.296 466.669 12.1173 465.965 12.736C465.603 13.0133 464.995 13.0987 464.141 12.992C464.141 12.288 464.077 11.7547 463.949 11.392C463.821 11.008 463.683 10.784 463.533 10.72C463.384 10.6347 463.181 10.592 462.925 10.592C461.859 10.592 460.899 11.2853 460.045 12.672V21.728L462.637 21.92C462.765 23.3067 462.285 24 461.197 24H453.805C453.805 24 453.805 23.9147 453.805 23.744C453.805 22.5707 454.275 21.9413 455.213 21.856L456.141 21.792V10.336L454.733 10.176C454.072 10.112 453.741 9.472 453.741 8.256L459.533 7.52L459.821 10.176H459.917ZM472.278 16.16V16.512C472.278 18.24 472.587 19.5307 473.206 20.384C473.846 21.216 474.934 21.632 476.47 21.632C478.027 21.632 479.552 21.0453 481.046 19.872C481.472 20.192 481.686 20.6933 481.686 21.376C481.686 22.0373 481.088 22.72 479.894 23.424C478.72 24.128 477.248 24.48 475.478 24.48C473.174 24.48 471.382 23.808 470.102 22.464C468.843 21.0987 468.214 19.04 468.214 16.288C468.214 13.5147 468.896 11.3387 470.262 9.76C471.648 8.16 473.547 7.36 475.958 7.36C478.006 7.36 479.531 8 480.534 9.28C481.558 10.56 482.048 12.2453 482.006 14.336V16.16H472.278ZM475.606 9.92C473.856 9.92 472.8 11.264 472.438 13.952H478.262C478.219 12.5013 477.974 11.4667 477.526 10.848C477.078 10.2293 476.438 9.92 475.606 9.92ZM494.456 8.544C494.989 9.01333 495.256 9.62133 495.256 10.368C495.256 11.1147 495.011 11.6907 494.52 12.096C494.051 12.5013 493.443 12.6507 492.696 12.544C492.696 11.7547 492.387 11.0933 491.768 10.56C491.149 10.0053 490.456 9.728 489.688 9.728C488.941 9.728 488.365 9.87733 487.96 10.176C487.555 10.4533 487.352 10.8267 487.352 11.296C487.352 11.7653 487.64 12.192 488.216 12.576C488.813 12.9387 489.645 13.3333 490.712 13.76C491.8 14.1867 492.579 14.528 493.048 14.784C493.517 15.0187 494.019 15.3387 494.552 15.744C495.576 16.512 496.088 17.6533 496.088 19.168C496.088 20.6613 495.48 21.92 494.264 22.944C493.048 23.968 491.427 24.48 489.4 24.48C487.907 24.48 486.595 24.2027 485.464 23.648C484.355 23.0933 483.8 22.2613 483.8 21.152C483.8 20.4053 484.067 19.8293 484.6 19.424C485.133 18.9973 485.763 18.784 486.488 18.784C486.765 20.96 488.003 22.048 490.2 22.048C491.971 22.048 492.856 21.4613 492.856 20.288C492.856 19.52 492.387 18.9013 491.448 18.432C490.936 18.1547 490.317 17.8773 489.592 17.6C488.867 17.3227 488.291 17.088 487.864 16.896C487.459 16.6827 487.011 16.416 486.52 16.096C486.029 15.776 485.624 15.4453 485.304 15.104C484.6 14.3147 484.248 13.3547 484.248 12.224C484.248 10.688 484.867 9.49333 486.104 8.64C487.341 7.78667 488.824 7.36 490.552 7.36C492.28 7.36 493.581 7.75467 494.456 8.544ZM508.331 8.544C508.864 9.01333 509.131 9.62133 509.131 10.368C509.131 11.1147 508.886 11.6907 508.395 12.096C507.926 12.5013 507.318 12.6507 506.571 12.544C506.571 11.7547 506.262 11.0933 505.643 10.56C505.024 10.0053 504.331 9.728 503.563 9.728C502.816 9.728 502.24 9.87733 501.835 10.176C501.43 10.4533 501.227 10.8267 501.227 11.296C501.227 11.7653 501.515 12.192 502.091 12.576C502.688 12.9387 503.52 13.3333 504.587 13.76C505.675 14.1867 506.454 14.528 506.923 14.784C507.392 15.0187 507.894 15.3387 508.427 15.744C509.451 16.512 509.963 17.6533 509.963 19.168C509.963 20.6613 509.355 21.92 508.139 22.944C506.923 23.968 505.302 24.48 503.275 24.48C501.782 24.48 500.47 24.2027 499.339 23.648C498.23 23.0933 497.675 22.2613 497.675 21.152C497.675 20.4053 497.942 19.8293 498.475 19.424C499.008 18.9973 499.638 18.784 500.363 18.784C500.64 20.96 501.878 22.048 504.075 22.048C505.846 22.048 506.731 21.4613 506.731 20.288C506.731 19.52 506.262 18.9013 505.323 18.432C504.811 18.1547 504.192 17.8773 503.467 17.6C502.742 17.3227 502.166 17.088 501.739 16.896C501.334 16.6827 500.886 16.416 500.395 16.096C499.904 15.776 499.499 15.4453 499.179 15.104C498.475 14.3147 498.123 13.3547 498.123 12.224C498.123 10.688 498.742 9.49333 499.979 8.64C501.216 7.78667 502.699 7.36 504.427 7.36C506.155 7.36 507.456 7.75467 508.331 8.544ZM516.03 2.08H523.294C523.294 2.08 523.294 2.16533 523.294 2.336C523.294 3.50933 522.825 4.13867 521.886 4.224L520.958 4.288V19.552C520.958 21.4507 520.403 22.9973 519.294 24.192C518.206 25.408 516.734 26.016 514.878 26.016C513.854 26.016 513.033 25.7493 512.414 25.216C511.795 24.704 511.486 24.0853 511.486 23.36C511.486 21.6533 512.393 20.8 514.206 20.8C514.206 22.4853 514.739 23.328 515.806 23.328C516.19 23.328 516.478 23.0827 516.67 22.592C516.862 22.08 516.958 21.1413 516.958 19.776V4.352H516.926L514.59 4.16C514.462 2.77333 514.942 2.08 516.03 2.08ZM538.083 3.2C538.702 3.81867 539.011 4.58667 539.011 5.504C539.011 6.42133 538.734 7.11467 538.179 7.584C537.624 8.05333 536.91 8.224 536.035 8.096C536.035 5.38667 534.851 4.032 532.483 4.032C531.438 4.032 530.584 4.27733 529.923 4.768C529.283 5.23733 528.963 5.888 528.963 6.72C528.963 7.36 529.112 7.84 529.411 8.16C529.71 8.45867 529.934 8.68267 530.083 8.832C530.232 8.96 530.51 9.14133 530.915 9.376C531.342 9.58933 531.64 9.73867 531.811 9.824C532.003 9.90933 532.376 10.08 532.931 10.336C533.507 10.5707 533.891 10.7307 534.083 10.816C536.259 11.776 537.784 12.6933 538.659 13.568C539.555 14.4427 540.003 15.6587 540.003 17.216C540.003 19.3707 539.246 21.12 537.731 22.464C536.216 23.808 534.168 24.48 531.587 24.48C528.984 24.48 527.032 23.8933 525.731 22.72C525.027 22.0587 524.675 21.2907 524.675 20.416C524.675 19.52 524.952 18.816 525.507 18.304C526.083 17.792 526.936 17.536 528.067 17.536C528.067 19.0933 528.387 20.2347 529.027 20.96C529.688 21.6853 530.723 22.048 532.131 22.048C533.539 22.048 534.648 21.728 535.459 21.088C536.27 20.4267 536.675 19.6053 536.675 18.624C536.675 17.6427 536.291 16.8533 535.523 16.256C534.755 15.6587 533.731 15.0827 532.451 14.528C531.171 13.9733 530.328 13.6107 529.923 13.44C529.518 13.248 528.984 12.9493 528.323 12.544C527.662 12.1173 527.182 11.712 526.883 11.328C526.051 10.304 525.635 9.13067 525.635 7.808C525.635 5.78133 526.382 4.24533 527.875 3.2C529.368 2.13333 531.171 1.6 533.283 1.6C535.395 1.6 536.995 2.13333 538.083 3.2Z" fill="white"/>
</g>
<defs>
<filter id="filter0_i_1_17" x="0.216003" y="0.511993" width="539.787" height="34.464" filterUnits="userSpaceOnUse" color-interpolation-filters="sRGB">
<feFlood flood-opacity="0" result="BackgroundImageFix"/>
<feBlend mode="normal" in="SourceGraphic" in2="BackgroundImageFix" result="shape"/>
<feColorMatrix in="SourceAlpha" type="matrix" values="0 0 0 0 0 0 0 0 0 0 0 0 0 0 0 0 0 0 127 0" result="hardAlpha"/>
<feOffset dy="4"/>
<feGaussianBlur stdDeviation="2"/>
<feComposite in2="hardAlpha" operator="arithmetic" k2="-1" k3="1"/>
<feColorMatrix type="matrix" values="0 0 0 0 0 0 0 0 0 0 0 0 0 0 0 0 0 0 0.3 0"/>
<feBlend mode="normal" in2="shape" result="effect1_innerShadow_1_17"/>
</filter>
</defs>
</svg>
